<?xml version="1.0" encoding="UTF-8"?>
<svg version="1.1" xmlns="http://www.w3.org/2000/svg" width="474" height="474">
<path d="M0 0 C1.41862766 -0.00445668 1.41862766 -0.00445668 2.86591446 -0.0090034 C6.01357493 -0.01762784 9.16119709 -0.01919334 12.30886841 -0.02069092 C14.57490621 -0.02532364 16.84094324 -0.03034891 19.10697937 -0.03573608 C25.25008794 -0.048821 31.39318559 -0.05529776 37.5363059 -0.05974674 C41.38168959 -0.06268465 45.22707034 -0.06679086 49.07245255 -0.07125092 C59.74597268 -0.08335376 70.41948921 -0.09373703 81.09301567 -0.09712601 C82.11580215 -0.09745536 82.11580215 -0.09745536 83.15925098 -0.09779136 C83.84262724 -0.09800964 84.52600349 -0.09822791 85.23008811 -0.09845281 C86.61458389 -0.09889625 87.99907967 -0.09934282 89.38357544 -0.09979248 C90.07031527 -0.10001391 90.7570551 -0.10023534 91.46460523 -0.10046348 C102.57041999 -0.10440413 113.67616885 -0.1218384 124.78195821 -0.145152 C136.21919701 -0.16896493 147.65638806 -0.18107533 159.09365475 -0.18249393 C165.50099122 -0.18353739 171.90823468 -0.18934665 178.31554794 -0.20731354 C184.35176089 -0.22391096 190.38781207 -0.22589358 196.42403984 -0.21717453 C198.62527465 -0.21641028 200.82651857 -0.22066481 203.02773094 -0.23063278 C241.74227211 -0.39550123 276.68300876 10.15500343 304.76638794 37.71514893 C305.47601685 38.42066895 305.47601685 38.42066895 306.19998169 39.14044189 C306.67564575 39.61207764 307.15130981 40.08371338 307.64138794 40.56964111 C321.44438514 54.4525603 331.15149463 71.61797437 337.51248169 90.07794189 C337.74282104 90.73181885 337.9731604 91.3856958 338.21047974 92.05938721 C343.3280256 107.79701449 343.63609637 123.63154954 343.58816528 140.01544189 C343.59223902 142.37457521 343.59758537 144.73370662 343.60409546 147.09283447 C343.6176794 153.45231884 343.61250747 159.8116559 343.6029582 166.17114258 C343.59840378 170.15391726 343.59864242 174.13667115 343.60142899 178.1194458 C343.60188868 178.7838716 343.60234838 179.44829741 343.60282201 180.13285732 C343.60378134 181.48328782 343.60475398 182.83371831 343.60573979 184.18414879 C343.61426227 196.80049205 343.60450917 209.41676956 343.58833869 222.03310204 C343.57493837 232.82151904 343.57726735 243.60983914 343.59109497 254.39825439 C343.60720664 266.97430511 343.6134386 279.55029843 343.60425818 292.12635803 C343.60330269 293.47138468 343.60235957 294.81641133 343.60142899 296.16143799 C343.60096616 296.82294578 343.60050333 297.48445356 343.60002648 298.16600704 C343.59745328 302.7924283 343.60192072 307.41881124 343.60886765 312.04522705 C343.61759124 318.29003477 343.61141757 324.53466114 343.59418488 330.77944946 C343.59024869 333.05892639 343.59130428 335.33841883 343.59797287 337.6178894 C343.64203321 354.22087344 342.54541205 369.82680136 337.07498169 385.64044189 C336.77422729 386.51789063 336.4734729 387.39533936 336.16360474 388.29937744 C324.70773996 420.48712267 299.93958021 447.58137468 269.10916138 462.26593018 C252.12210314 470.04695864 234.02290253 474.2990794 215.32366943 474.28088379 C213.87463842 474.28534047 213.87463842 474.28534047 212.39633405 474.28988719 C209.17413608 474.29852683 205.95197546 474.30007844 202.72976685 474.30157471 C200.41299359 474.30620636 198.09622109 474.31123148 195.77944946 474.31661987 C189.49379138 474.32971533 183.20814397 474.33618365 176.92247438 474.34063053 C172.98916132 474.34356681 169.05585113 474.34767273 165.12253952 474.3521347 C154.2088643 474.36423958 143.29519159 474.3746221 132.38150978 474.3780098 C131.68402739 474.37822936 130.986545 474.37844893 130.26792677 474.37867515 C129.56887222 474.37889343 128.86981767 474.3791117 128.14957964 474.3793366 C126.73327486 474.37978004 125.31697007 474.38022661 123.90066528 474.38067627 C123.19814457 474.3808977 122.49562385 474.38111913 121.77181463 474.38134727 C110.40983362 474.38528822 99.04791702 474.40272259 87.68596084 474.42603579 C75.98998978 474.4498383 64.29405089 474.46221574 52.59805524 474.46337771 C46.04374241 474.46442186 39.48952045 474.47024575 32.93523026 474.48819733 C26.76114441 474.5047787 20.58721675 474.50678498 14.41311646 474.49805832 C12.15986073 474.49729322 9.90659614 474.50156019 7.65336227 474.51151657 C-9.15434019 474.58136736 -25.3525823 473.61078052 -41.36251831 468.01544189 C-42.23400513 467.7161377 -43.10549194 467.4168335 -44.00338745 467.10845947 C-77.085257 455.30147241 -103.3812349 430.63409352 -118.73361206 399.23077393 C-122.07861953 391.98390003 -124.43345352 384.44337667 -126.55001831 376.76544189 C-126.74893677 376.05984131 -126.94785522 375.35424072 -127.15280151 374.6272583 C-131.12802457 359.27549597 -131.09177377 343.47374207 -131.05880737 327.73419189 C-131.06152382 325.53269333 -131.06508839 323.33119567 -131.06942749 321.12969971 C-131.07847604 315.19997897 -131.07503858 309.27032852 -131.06866932 303.34060669 C-131.06357003 297.10526352 -131.06831161 290.86992596 -131.07144165 284.63458252 C-131.07530164 273.49928366 -131.06912573 262.3640122 -131.05892298 251.22871876 C-131.04998964 241.16802746 -131.05154236 231.10738236 -131.0607605 221.04669189 C-131.07150544 209.31445324 -131.07542536 197.58224147 -131.06953597 185.84999847 C-131.06643413 179.65749505 -131.06595743 173.4650233 -131.07260895 167.27252197 C-131.07842936 161.44798654 -131.07430044 155.62353744 -131.06282043 149.79901123 C-131.06019878 147.6743382 -131.06089566 145.54965778 -131.06534576 143.42498779 C-131.09465891 127.99511225 -130.77303985 112.55066178 -126.61251831 97.57794189 C-126.39821167 96.79185547 -126.18390503 96.00576904 -125.96310425 95.19586182 C-120.79341811 77.05625943 -111.62859771 59.01320799 -98.80001831 45.14044189 C-98.23927612 44.53200439 -97.67853394 43.92356689 -97.10079956 43.29669189 C-71.57750141 15.90061506 -37.73101214 -0.03769043 0 0 Z " fill="#1533C9" transform="translate(130.80001831054688,-0.14044189453125)"/>
<path d="M0 0 C1.11632812 -0.0038269 2.23265625 -0.00765381 3.3828125 -0.01159668 C5.72917591 -0.01430326 8.07557015 -0.00703061 10.421875 0.00976562 C13.990275 0.03119161 17.55666179 0.00991927 21.125 -0.015625 C23.41667106 -0.0129815 25.70834088 -0.00785608 28 0 C29.58167969 -0.01214539 29.58167969 -0.01214539 31.1953125 -0.02453613 C41.34705263 0.10244175 50.72019049 3.18908666 58 10.53125 C62.83150609 17.08904584 65.07566568 22.62386692 65.19287109 30.77368164 C65.20893402 31.79567154 65.22499695 32.81766144 65.24154663 33.87062073 C65.28643509 38.5448409 65.32707879 43.21892464 65.35009766 47.89331055 C65.36661553 50.34783436 65.39384978 52.8023109 65.43212891 55.2565918 C65.48731427 58.81844729 65.50883827 62.37917894 65.5234375 65.94140625 C65.54610687 67.02309586 65.56877625 68.10478546 65.59213257 69.21925354 C65.56458561 79.31054155 62.7000951 87.87646638 56 95.53125 C53.5625 97.296875 53.5625 97.296875 51 98.78125 C50.154375 99.28140625 49.30875 99.7815625 48.4375 100.296875 C44.42003723 102.33135935 40.95245373 102.66493763 36.47216797 102.72412109 C35.36356415 102.74018402 34.25496033 102.75624695 33.11276245 102.77279663 C28.04002631 102.81747847 22.96741846 102.85832302 17.89453125 102.88134766 C15.22496229 102.89464644 12.55721207 102.92513087 9.88769531 102.96337891 C6.02646049 103.01837544 2.16626222 103.04005949 -1.6953125 103.0546875 C-2.87795685 103.07735687 -4.0606012 103.10002625 -5.27908325 103.12338257 C-14.18871987 103.10086158 -20.60487953 101.05000204 -27.5859375 95.4609375 C-28.17632812 94.78289062 -28.76671875 94.10484375 -29.375 93.40625 C-29.98085937 92.74367188 -30.58671875 92.08109375 -31.2109375 91.3984375 C-36.26514874 83.29845703 -37.59485899 75.23568694 -37.4609375 65.8359375 C-37.46002106 64.76304474 -37.45910461 63.69015198 -37.4581604 62.58474731 C-37.45216124 60.33428477 -37.43652775 58.08382881 -37.41162109 55.83349609 C-37.37502112 52.4082262 -37.37060321 48.98403932 -37.37109375 45.55859375 C-37.36126352 43.35936575 -37.34960694 41.16014499 -37.3359375 38.9609375 C-37.33371185 37.9482077 -37.33148621 36.93547791 -37.32919312 35.89205933 C-37.17795265 24.45567754 -35.30095342 17.20194152 -27.40234375 8.83984375 C-19.53154739 1.41561739 -10.47756206 -0.080455 0 0 Z " fill="#FCFCFE" transform="translate(130,91.46875)"/>
<path d="M0 0 C1.20319885 -0.0099852 2.40639771 -0.0199704 3.64605713 -0.03025818 C6.18425067 -0.04539853 8.72250353 -0.05248524 11.26074219 -0.05200195 C15.11494957 -0.05855013 18.96656156 -0.1130463 22.8203125 -0.16992188 C25.29686628 -0.17872792 27.77343217 -0.18467947 30.25 -0.1875 C31.95684967 -0.21983482 31.95684967 -0.21983482 33.69818115 -0.25282288 C43.04410291 -0.17400423 50.86768563 2.43195711 57.89984131 8.76292419 C65.84485868 16.95054788 66.85275631 24.976169 66.82421875 35.96484375 C66.8294606 37.1505899 66.83470245 38.33633606 66.84010315 39.55801392 C66.84650515 42.05754822 66.84521008 44.55711272 66.83666992 47.05664062 C66.82816743 50.85992672 66.85693806 54.661706 66.88867188 58.46484375 C66.89028439 60.9023433 66.8897054 63.33984549 66.88671875 65.77734375 C66.89795273 66.90369232 66.90918671 68.03004089 66.92076111 69.19052124 C66.83811942 78.65692004 64.73677429 86.88468776 58.171875 93.96875 C46.6002829 103.9416353 31.80312501 102.69064377 17.46679688 102.68920898 C15.0271662 102.6913959 12.5879887 102.70961769 10.1484375 102.72851562 C-17.50992506 102.82887075 -17.50992506 102.82887075 -26.54296875 94.78125 C-30.94037666 90.18271324 -33.17131306 85.66544857 -34.609375 79.50390625 C-34.86738892 78.48997803 -34.86738892 78.48997803 -35.13061523 77.45556641 C-35.79962991 73.33094252 -35.77201223 69.27377686 -35.77734375 65.1015625 C-35.78233635 63.73033485 -35.78233635 63.73033485 -35.78742981 62.33140564 C-35.79248563 60.3956655 -35.79483855 58.45991666 -35.79467773 56.52416992 C-35.79684428 53.6077572 -35.81495883 50.69173549 -35.83398438 47.77539062 C-35.92564773 18.6619253 -35.92564773 18.6619253 -29.30859375 11.1796875 C-28.74785156 10.62667969 -28.18710938 10.07367188 -27.609375 9.50390625 C-27.05894531 8.94058594 -26.50851563 8.37726563 -25.94140625 7.796875 C-18.27590936 0.58744886 -10.10637883 0.02944149 0 0 Z " fill="#FCFDFE" transform="translate(128.609375,279.49609375)"/>
<path d="M0 0 C1.11491318 -0.0038269 2.22982635 -0.00765381 3.37852478 -0.01159668 C5.71891186 -0.01430061 8.05932995 -0.00704685 10.3996582 0.00976562 C13.95918771 0.03121592 17.51670373 0.0098997 21.07617188 -0.015625 C23.36328565 -0.01298185 25.65039819 -0.00785715 27.9375 0 C29.51447411 -0.01214539 29.51447411 -0.01214539 31.12330627 -0.02453613 C39.94898047 0.08620993 48.00423723 2.12568582 54.71484375 8.15625 C55.74544922 9.04183594 55.74544922 9.04183594 56.796875 9.9453125 C63.33883792 17.98015379 64.6470299 25.46169711 64.53125 35.625 C64.53366196 36.85230835 64.53607391 38.0796167 64.53855896 39.34411621 C64.53758422 41.92589567 64.52428052 44.507697 64.49926758 47.08935547 C64.46494256 51.01993492 64.47863691 54.94826464 64.49804688 58.87890625 C64.49114784 61.39844698 64.48147494 63.91798196 64.46875 66.4375 C64.4761898 68.18323303 64.4761898 68.18323303 64.48377991 69.9642334 C64.33922479 80.0795064 62.02434267 88.35173373 54.91903687 95.78883362 C47.16772799 102.48593962 39.22064237 103.26850595 29.30078125 103.16015625 C27.38611557 103.16377419 27.38611557 103.16377419 25.43276978 103.16746521 C22.74759508 103.16649001 20.06468871 103.1558186 17.37988281 103.12817383 C13.95918237 103.09402289 10.53998057 103.10014982 7.11920738 103.1188364 C3.82547977 103.13201012 0.53197672 103.11367488 -2.76171875 103.09765625 C-3.9796109 103.10261612 -5.19750305 103.10757599 -6.45230103 103.11268616 C-16.38643852 102.97568851 -22.8324278 100.63502893 -30.09765625 93.53125 C-36.41676918 85.07659198 -37.42768143 77.48692358 -37.50390625 67.1171875 C-37.5153064 65.91115875 -37.52670654 64.70513 -37.53845215 63.46255493 C-37.55731634 60.91240934 -37.57040588 58.3622154 -37.578125 55.81201172 C-37.59748649 51.94019808 -37.65953969 48.0705322 -37.72265625 44.19921875 C-37.73572319 41.71355419 -37.74622143 39.22787453 -37.75390625 36.7421875 C-37.77859985 35.59801361 -37.80329346 34.45383972 -37.82873535 33.2749939 C-37.77861695 24.08255628 -35.22612536 16.53953 -29.32409668 9.37973022 C-21.15529276 1.49031409 -10.94499174 -0.08445769 0 0 Z " fill="#FDFDFE" transform="translate(317.09765625,91.46875)"/>
<path d="M0 0 C1.12722977 -0.00428513 2.25445953 -0.00857025 3.41584778 -0.01298523 C5.78495617 -0.01869966 8.15408209 -0.01925023 10.52319336 -0.01489258 C14.14401991 -0.0117192 17.76403904 -0.03527515 21.38476562 -0.06054688 C23.69400939 -0.06281884 26.00325534 -0.06352384 28.3125 -0.0625 C29.39073532 -0.07170975 30.46897064 -0.08091949 31.57987976 -0.09040833 C38.85402712 -0.04561771 43.2621258 0.89880031 48.83203125 5.86328125 C51.53158059 9.34657072 51.55260846 12.68313454 51.30859375 16.97265625 C50.61114175 21.5913384 48.38222014 24.04564409 45.01953125 27.05078125 C40.90489289 30.07378086 38.02825207 30.42405768 33.00830078 30.42675781 C32.02693146 30.43056458 31.04556213 30.43437134 30.03445435 30.43829346 C28.98023285 30.43932068 27.92601135 30.4403479 26.83984375 30.44140625 C24.60155229 30.45973035 22.36327075 30.47930029 20.125 30.5 C16.60057787 30.52898939 13.07679531 30.55078197 9.55224609 30.55126953 C6.14753638 30.55460421 2.74429793 30.58915124 -0.66015625 30.62890625 C-1.71032928 30.62183655 -2.76050232 30.61476685 -3.84249878 30.60748291 C-10.23690884 30.69697291 -10.23690884 30.69697291 -15.69189453 33.71777344 C-18.79811058 37.13041786 -19.16702311 38.59595908 -19.18481445 43.08251953 C-19.19536613 44.57514816 -19.19536613 44.57514816 -19.20613098 46.09793091 C-19.21029526 47.17807465 -19.21445953 48.25821838 -19.21875 49.37109375 C-19.24195805 51.65235288 -19.26607578 53.9336029 -19.29101562 56.21484375 C-19.32606457 59.81581626 -19.35543389 63.41645619 -19.36889648 67.01757812 C-19.38442394 70.48999585 -19.42467786 73.96143598 -19.46875 77.43359375 C-19.46684158 78.5015921 -19.46493317 79.56959045 -19.46296692 80.66995239 C-19.59031561 88.5003998 -20.89361136 94.22823746 -26.60546875 99.80078125 C-31.50056255 101.93682218 -35.79110856 102.32070772 -41.04296875 101.30078125 C-45.36219766 98.91828843 -48.13776067 95.83372079 -50.04296875 91.30078125 C-50.30366516 88.84373474 -50.30366516 88.84373474 -50.31762695 86.06420898 C-50.32715897 85.01889511 -50.33669098 83.97358124 -50.34651184 82.89659119 C-50.34560043 81.77055984 -50.34468903 80.6445285 -50.34375 79.484375 C-50.34803513 78.31753677 -50.35232025 77.15069855 -50.35673523 75.94850159 C-50.36247997 73.47633512 -50.36297775 71.00415176 -50.35864258 68.53198242 C-50.35550104 64.77688081 -50.37887687 61.02258127 -50.40429688 57.26757812 C-50.40657189 54.86067807 -50.40727242 52.45377591 -50.40625 50.046875 C-50.41545975 48.93501328 -50.42466949 47.82315155 -50.43415833 46.67759705 C-50.35740924 33.52570781 -46.93366763 22.80512307 -37.9375 13.0078125 C-26.80008674 2.50119079 -14.87302407 -0.01264303 0 0 Z " fill="#FDFDFE" transform="translate(330.04296875,279.69921875)"/>
<path d="M0 0 C4.58890618 2.39184074 8.0173983 5.16282069 10 10 C10.26069641 12.53970337 10.26069641 12.53970337 10.2746582 15.43603516 C10.28419022 16.52461823 10.29372223 17.61320129 10.30354309 18.73477173 C10.30263168 19.90768768 10.30172028 21.08060364 10.30078125 22.2890625 C10.30506638 23.50266449 10.3093515 24.71626648 10.31376648 25.96664429 C10.31951138 28.53716407 10.32000888 31.10770011 10.31567383 33.67822266 C10.31252883 37.58915445 10.33592026 41.4993188 10.36132812 45.41015625 C10.36360275 47.91145738 10.36430386 50.41276054 10.36328125 52.9140625 C10.372491 54.07483307 10.38170074 55.23560364 10.39118958 56.43154907 C10.32196367 68.74010539 7.20890446 79.26564421 -1.26171875 88.453125 C-12.50572441 99.11463115 -23.93115149 102.29669469 -39.09375 102.37109375 C-40.23984741 102.38012222 -41.38594482 102.3891507 -42.56677246 102.39845276 C-44.98052375 102.41290544 -47.39431376 102.42182954 -49.80810547 102.42553711 C-53.48862678 102.43746315 -57.16748653 102.48672639 -60.84765625 102.53710938 C-63.20051271 102.54657151 -65.55337939 102.55380754 -67.90625 102.55859375 C-68.99917358 102.57812607 -70.09209717 102.59765839 -71.21813965 102.61778259 C-78.03037845 102.57776715 -82.80088406 101.59212448 -88 97 C-90.98135233 92.90064055 -91.54369357 89.13271552 -91.34375 84.17578125 C-90.78052074 80.61079603 -89.40344227 78.64994917 -87 76 C-80.9334917 71.59033025 -75.95357307 71.43808689 -68.58984375 71.49609375 C-67.50417618 71.48667252 -66.41850861 71.47725128 -65.29994202 71.46754456 C-61.84560087 71.43896755 -58.39194963 71.43581408 -54.9375 71.4375 C-51.47958098 71.43388922 -48.02216118 71.42433219 -44.56434631 71.39674377 C-42.41746828 71.37999068 -40.27042572 71.37705179 -38.1235199 71.38975525 C-30.60170609 71.35043184 -30.60170609 71.35043184 -24 68 C-19.38766297 62.14604625 -19.43889677 56.85076307 -19.49609375 49.58984375 C-19.48667252 48.50417618 -19.47725128 47.41850861 -19.46754456 46.29994202 C-19.43896755 42.84560087 -19.43581408 39.39194963 -19.4375 35.9375 C-19.43388922 32.47958098 -19.42433219 29.02216118 -19.39674377 25.56434631 C-19.37999068 23.41746828 -19.37705179 21.27042572 -19.38975525 19.1235199 C-19.35138366 13.67169441 -19.13731831 9.67579744 -16 5 C-10.85549458 0.35739754 -6.88479429 -1.17118122 0 0 Z " fill="#FBFCFE" transform="translate(242,150)"/>
<path d="M0 0 C1.262463 0.00303635 1.262463 0.00303635 2.5504303 0.00613403 C3.83966148 0.00469894 3.83966148 0.00469894 5.15493774 0.00323486 C6.97662936 0.00255296 8.7983234 0.00440792 10.62001038 0.00857544 C13.41392975 0.01391708 16.20768788 0.00863415 19.00160217 0.00222778 C20.76787857 0.00288869 22.53415487 0.00417012 24.3004303 0.00613403 C25.14004807 0.0041098 25.97966583 0.00208557 26.84472656 0 C32.7619271 0.02399181 32.7619271 0.02399181 34.99183655 1.13894653 C35.04118581 6.79892699 35.07753184 12.45878289 35.10169983 18.118927 C35.11177237 20.04538148 35.12543098 21.97182061 35.14271545 23.89822388 C35.16690896 26.66339905 35.17830691 29.42837253 35.18714905 32.19363403 C35.19747162 33.05826263 35.20779419 33.92289124 35.21842957 34.8137207 C35.21882761 36.92348174 35.11448898 39.03275372 34.99183655 41.13894653 C32.35162115 43.77916193 30.43690715 43.37697376 26.84472656 43.39118958 C26.0051088 43.38400406 25.16549103 43.37681854 24.3004303 43.36941528 C23.43998611 43.36895706 22.57954193 43.36849884 21.69302368 43.36802673 C19.87309898 43.36500359 18.05317688 43.35711542 16.23329163 43.34475708 C13.4372193 43.32649801 10.64147789 43.32424738 7.84535217 43.32449341 C6.08037533 43.31957843 4.31540075 43.3137502 2.5504303 43.30691528 C1.7087883 43.30580246 0.8671463 43.30468964 0 43.30354309 C-5.8921164 43.25499359 -5.8921164 43.25499359 -7.00816345 42.13894653 C-7.10930045 39.1208659 -7.14785254 36.12614141 -7.14097595 33.10769653 C-7.14193268 32.20144531 -7.1428894 31.29519409 -7.14387512 30.36148071 C-7.14455699 28.44143606 -7.14270227 26.52138912 -7.13853455 24.60134888 C-7.13318637 21.6515895 -7.13847933 18.70198239 -7.1448822 15.75222778 C-7.14422142 13.89155036 -7.14294026 12.03087304 -7.14097595 10.17019653 C-7.14300018 9.28166992 -7.14502441 8.39314331 -7.14710999 7.47769165 C-7.11839051 0.02897964 -7.11839051 0.02897964 0 0 Z " fill="#2038DF" transform="translate(317.00816345214844,121.86105346679688)"/>
<path d="M0 0 C1.29997925 0.00303635 1.29997925 0.00303635 2.6262207 0.00613403 C3.51027588 0.00517731 4.39433105 0.00422058 5.30517578 0.00323486 C7.178142 0.00255302 9.05111056 0.0044076 10.92407227 0.00857544 C13.80140458 0.01392364 16.67858078 0.0086306 19.5559082 0.00222778 C21.37101272 0.00288856 23.18611713 0.00416972 25.0012207 0.00613403 C25.86787354 0.0041098 26.73452637 0.00208557 27.62744141 0 C33.69877061 0.02399644 33.69877061 0.02399644 34.8137207 1.13894653 C34.90242712 4.16850896 34.92898652 7.17581363 34.91137695 10.20535278 C34.91036987 11.01033203 34.90936279 11.81531128 34.9083252 12.64468384 C34.90307685 15.66361914 34.8891157 18.68253421 34.8762207 21.70144653 C34.8555957 28.44582153 34.8349707 35.19019653 34.8137207 42.13894653 C20.9537207 42.13894653 7.0937207 42.13894653 -7.1862793 42.13894653 C-7.2069043 35.39457153 -7.2275293 28.65019653 -7.2487793 21.70144653 C-7.2578833 19.57006226 -7.2669873 17.43867798 -7.27636719 15.2427063 C-7.27928629 13.5635891 -7.28183486 11.8844712 -7.28393555 10.20535278 C-7.28905151 9.32520508 -7.29416748 8.44505737 -7.29943848 7.53823853 C-7.29974825 5.40480774 -7.24871997 3.27146339 -7.1862793 1.13894653 C-5.29004728 -0.75728549 -2.5225757 0.00997028 0 0 Z " fill="#1E36DF" transform="translate(130.186279296875,121.86105346679688)"/>
<path d="M0 0 C1.72974441 0.00015918 3.45949355 0.0058569 5.18920898 0.01586914 C6.09783188 0.01728409 7.00645477 0.01869904 7.94261169 0.02015686 C10.85687494 0.02577346 13.77106254 0.03832874 16.68530273 0.05102539 C18.65600475 0.05603825 20.62670797 0.06060153 22.59741211 0.06469727 C27.43923832 0.07574828 32.28100768 0.09302401 37.12280273 0.11352539 C37.14744911 5.93424162 37.16563704 11.75492773 37.17773438 17.57568359 C37.18277541 19.55745981 37.18960812 21.53923228 37.19824219 23.52099609 C37.21031788 26.36304648 37.21603319 29.20504786 37.22045898 32.04711914 C37.22562027 32.93878281 37.23078156 33.83044647 37.23609924 34.74913025 C37.2362945 36.8709314 37.18490303 38.99263319 37.12280273 41.11352539 C35.22657071 43.00975741 32.45909914 42.24250165 29.93652344 42.25247192 C28.63654419 42.24943558 28.63654419 42.24943558 27.31030273 42.24633789 C25.98421997 42.24777298 25.98421997 42.24777298 24.63134766 42.24923706 C22.75838144 42.24991891 20.88541288 42.24806432 19.01245117 42.24389648 C16.13511886 42.23854828 13.25794266 42.24384132 10.38061523 42.25024414 C8.56551072 42.24958336 6.75040631 42.2483022 4.93530273 42.24633789 C4.0686499 42.24836212 3.20199707 42.25038635 2.30908203 42.25247192 C-3.76224717 42.22847548 -3.76224717 42.22847548 -4.87719727 41.11352539 C-4.9783008 38.16816969 -5.01689006 35.24674979 -5.01000977 32.30102539 C-5.01096649 31.41697021 -5.01192322 30.53291504 -5.01290894 29.62207031 C-5.01359078 27.7491041 -5.0117362 25.87613553 -5.00756836 24.00317383 C-5.00222016 21.12584152 -5.0075132 18.24866531 -5.01391602 15.37133789 C-5.01325523 13.55623338 -5.01197407 11.74112896 -5.01000977 9.92602539 C-5.012034 9.05937256 -5.01405823 8.19271973 -5.0161438 7.29980469 C-4.98786914 0.14604617 -4.98786914 0.14604617 0 0 Z " fill="#0C31B4" transform="translate(127.877197265625,309.886474609375)"/>
<path d="M0 0 C1.12986328 -0.00515625 2.25972656 -0.0103125 3.42382812 -0.015625 C4.59494141 -0.00015625 5.76605469 0.0153125 6.97265625 0.03125 C8.13990234 0.01578125 9.30714844 0.0003125 10.50976562 -0.015625 C16.92294377 0.01360886 21.24086794 0.07068974 26.03515625 4.53125 C28.63686703 8.34709248 29.64597652 11.78182444 29.44921875 16.44140625 C28.44088258 21.53065013 25.78311131 25.33672271 21.54296875 28.234375 C16.65969644 30.03977189 12.2001008 30.00642532 7.03515625 29.96875 C5.57722656 29.9987207 5.57722656 29.9987207 4.08984375 30.02929688 C-1.93092927 30.02519553 -5.37990386 29.51847118 -9.96484375 25.53125 C-13.82306857 21.15164345 -15.33229072 18.57259066 -15.24609375 12.625 C-14.64586305 8.15661593 -11.85672742 5.37089546 -8.69311523 2.39257812 C-5.49932178 0.21365362 -3.82830508 0.01685285 0 0 Z " fill="#FBFBFE" transform="translate(294.96484375,222.46875)"/>
<path d="M0 0 C4.91682968 2.36736244 7.47396548 5.20212311 10 10 C10.55259828 13.6798355 10.51384975 17.28595394 10.4375 21 C10.44458984 21.97195313 10.45167969 22.94390625 10.45898438 23.9453125 C10.41107246 29.35567323 10.08287281 33.3609402 7 38 C2.07675067 42.44293232 -0.95185622 43.36182654 -7.45703125 43.27734375 C-11.23091373 42.86575288 -13.24007187 41.55798217 -16 39 C-19.85457838 33.33801167 -19.48131219 27.59572533 -19.4375 21 C-19.45748047 19.93265625 -19.47746094 18.8653125 -19.49804688 17.765625 C-19.49416852 11.52922824 -19.20130668 7.72354702 -15 3 C-10.63062191 -0.85533361 -5.54436775 -0.79205254 0 0 Z " fill="#FBFCFD" transform="translate(242,338)"/>
<path d="M0 0 C4.42977671 2.1357852 7.19613671 4.39012714 9 9 C9.67862867 13.92634148 9.65774078 18.43887695 7.375 22.9375 C4.19661779 27.03594021 1.76563072 28.55201354 -3.36328125 29.3828125 C-8.16560511 29.71802782 -11.22536498 29.36269485 -15 26.25 C-18.68885396 22.73849479 -20.31093246 19.34627136 -20.5625 14.25 C-20.4905536 8.85402007 -18.40695585 6.25978818 -14.7265625 2.49609375 C-10.50450009 -1.16239019 -5.3129597 -0.54030099 0 0 Z " fill="#FCFCFE" transform="translate(243,93)"/>
<path d="M0 0 C4.138453 1.46063047 7.36901646 3.53928767 10.078125 7.06640625 C12.06170365 11.22687842 11.7941564 15.55143287 11 20 C9.15877922 24.48544092 6.75972667 26.57179042 2.5625 28.9375 C-2.55548043 30.46391522 -5.34442302 30.89401157 -10.125 28.3125 C-13.89268738 25.28196885 -16.46070431 22.61788708 -18 18 C-18.3823833 13.33492377 -18.47936179 10.95872359 -16.375 6.75 C-11.54798301 1.16082243 -7.28629082 -1.1827446 0 0 Z " fill="#FAFBFD" transform="translate(370,352)"/>
<path d="M0 0 C5.26402122 1.90059995 8.58837811 4.88736159 11 10 C11.94729715 15.35174059 11.34140347 19.92982926 8.328125 24.4921875 C4.99105667 28.28074155 1.43924437 29.79439366 -3.5 30.5 C-8.43924437 29.79439366 -11.99105667 28.28074155 -15.328125 24.4921875 C-18.33820595 19.93467058 -18.95619279 15.34687398 -18 10 C-14.34376011 2.5468956 -8.42626202 -1.59724116 0 0 Z " fill="#FAFAFD" transform="translate(241,280)"/>
<path d="M0 0 C4.31762713 1.68950627 7.87566666 4.82968988 10 9 C10.93448509 13.95438216 10.554063 17.80322392 8.4375 22.375 C4.5286619 26.58451795 1.18331894 28.73187311 -4.5625 29.4375 C-9.84453678 28.76524077 -12.8426164 26.98126001 -16.875 23.5625 C-19.84296197 19.71764018 -19.68823636 15.54450023 -19.49609375 10.8515625 C-18.74299564 6.52273086 -17.26751466 4.8875711 -14 2 C-9.5315191 -0.97898726 -5.23890827 -0.48536944 0 0 Z " fill="#FBFBFE" transform="translate(113,223)"/>
<path d="M0 0 C4.43041256 2.13609177 7.16159481 4.40398702 9 9 C9.75676815 14.67576109 9.29011068 19.17450433 6 24 C3.2348942 27.10231382 1.67957476 28.68593318 -2.40234375 29.44921875 C-8.06341321 29.69609246 -11.67894734 28.90952384 -16 25 C-19.42257142 21.03702257 -20.61900774 18.07392136 -20.31640625 12.94921875 C-19.50424009 7.94587411 -16.94741758 4.01563008 -12.9375 0.91796875 C-8.80764941 -1.03871449 -4.4198614 -0.71033487 0 0 Z " fill="#FBFCFE" transform="translate(372,223)"/>
</svg>
